<svg width="24" height="24" viewBox="0 0 24 24" fill="none" xmlns="http://www.w3.org/2000/svg">
<path d="M0.6 15.4124C0.44087 15.4124 0.288258 15.5028 0.175736 15.6639C0.0632142 15.8249 0 16.0434 0 16.2711C0 16.4989 0.0632142 16.7173 0.175736 16.8784C0.288258 17.0394 0.44087 17.1299 0.6 17.1299H2.4C2.4 18.952 2.90571 20.6994 3.80589 21.9878C4.70606 23.2762 5.92696 24 7.2 24H16.8C18.073 24 19.2939 23.2762 20.1941 21.9878C21.0943 20.6994 21.6 18.952 21.6 17.1299H23.4C23.5591 17.1299 23.7117 17.0394 23.8243 16.8784C23.9368 16.7173 24 16.4989 24 16.2711C24 16.0434 23.9368 15.8249 23.8243 15.6639C23.7117 15.5028 23.5591 15.4124 23.4 15.4124H0.6Z" fill="black"/>
<path fill-rule="evenodd" clip-rule="evenodd" d="M11.463 0L12 0.383869L12.537 0.767738L12.5358 0.770315L12.5286 0.791784L12.4986 0.886249C12.3383 1.39861 12.2176 1.93451 12.1386 2.48442C11.997 3.4969 12.0492 4.3926 12.4242 4.92933C13.2492 6.11014 13.197 7.79075 13.0386 8.92518C12.9353 9.64778 12.773 10.3505 12.555 11.0189L12.543 11.0558L12.5388 11.0669L12.5376 11.0712L12.537 11.0721L12 10.6891L11.463 10.3052L11.4642 10.3026L11.4714 10.2812L11.5014 10.1867C11.6618 9.67435 11.7825 9.13845 11.8614 8.58854C12.003 7.57606 11.9508 6.68036 11.5758 6.14363C10.7508 4.96282 10.803 3.28221 10.9614 2.14778C11.0648 1.42518 11.2271 0.722463 11.445 0.0541022L11.457 0.0171749L11.4612 0.00601135L11.4624 0.00257571L11.463 0.000858297V0ZM6.70203 2.05074L7.20003 2.53165C7.69743 3.0117 7.69803 3.01084 7.69803 3.01084V3.00998V3.01084L7.69023 3.02802C7.63757 3.14821 7.58833 3.2714 7.54263 3.39729C7.42919 3.70547 7.3387 4.02986 7.27263 4.36512C7.12863 5.13114 7.18023 5.73571 7.55703 6.13418C8.53023 7.16642 8.47863 8.70963 8.28543 9.73242C8.19713 10.1869 8.07545 10.6268 7.92243 11.0446C7.85552 11.2287 7.78285 11.4084 7.70463 11.5831L7.69983 11.5934L7.69863 11.5968L7.69803 11.5977C7.69803 11.5977 7.69743 11.5994 7.20003 11.1185C6.70263 10.6376 6.70203 10.6384 6.70203 10.6384L6.70983 10.6221L6.74223 10.5483C6.78261 10.4514 6.82103 10.3529 6.85743 10.2528C6.95043 9.99692 7.05723 9.65342 7.12743 9.28415C7.27143 8.51812 7.21983 7.91441 6.84303 7.51508C5.86983 6.48284 5.92143 4.94049 6.11463 3.91684C6.21363 3.39128 6.36003 2.92926 6.47763 2.60464C6.54461 2.4209 6.61728 2.24152 6.69543 2.06706L6.69963 2.05675L6.70143 2.05246L6.70263 2.05074H6.70203ZM16.902 2.05074L17.4 2.53165C17.8974 3.0117 17.898 3.01084 17.898 3.01084V3.00998V3.01084L17.8902 3.02802C17.8376 3.14821 17.7883 3.2714 17.7426 3.39729C17.6292 3.70547 17.5387 4.02986 17.4726 4.36512C17.3286 5.13114 17.3802 5.73571 17.757 6.13418C18.7302 7.16642 18.6786 8.70963 18.4854 9.73242C18.3971 10.1869 18.2754 10.6268 18.1224 11.0446C18.0557 11.2287 17.9832 11.4083 17.9052 11.5831L17.9004 11.5934L17.8986 11.5968L17.898 11.5977C17.898 11.5977 17.8974 11.5994 17.4 11.1185C16.9026 10.6376 16.902 10.6384 16.902 10.6384L16.9098 10.6221L16.9422 10.5483C16.9826 10.4514 17.021 10.3529 17.0574 10.2528C17.1504 9.99692 17.2572 9.65342 17.3274 9.28415C17.4714 8.51812 17.4198 7.91441 17.043 7.51508C16.0698 6.48284 16.1214 4.94049 16.3146 3.91684C16.4136 3.39128 16.56 2.92926 16.6776 2.60464C16.7444 2.42091 16.8169 2.24154 16.8948 2.06706L16.8996 2.05675L16.9014 2.05246L16.9026 2.05074H16.902Z" fill="black"/>
</svg>
