<svg width="24" height="24" viewBox="0 0 24 24" fill="none" xmlns="http://www.w3.org/2000/svg">
<path d="M8.46551 18.1596H15.5364C15.6542 18.1596 15.7507 18.0441 15.7507 17.9029V15.2074C15.7507 15.0662 15.6542 14.9507 15.5364 14.9507H14.465C14.3472 14.9507 14.2508 15.0662 14.2508 15.2074V16.3626H9.75113V15.2074C9.75113 15.0662 9.65471 14.9507 9.53686 14.9507H8.46551C8.34766 14.9507 8.25124 15.0662 8.25124 15.2074V17.9029C8.25124 18.0441 8.34766 18.1596 8.46551 18.1596ZM17.5719 14.2126C17.5719 14.553 17.6848 14.8795 17.8857 15.1202C18.0866 15.361 18.3591 15.4962 18.6433 15.4962C18.9274 15.4962 19.1999 15.361 19.4008 15.1202C19.6018 14.8795 19.7146 14.553 19.7146 14.2126C19.7146 13.8722 19.6018 13.5457 19.4008 13.305C19.1999 13.0642 18.9274 12.929 18.6433 12.929C18.3591 12.929 18.0866 13.0642 17.8857 13.305C17.6848 13.5457 17.5719 13.8722 17.5719 14.2126ZM23.9732 8.83434L23.3385 7.50582C23.3099 7.44725 23.2632 7.40459 23.2085 7.38716C23.1538 7.36972 23.0956 7.37892 23.0465 7.41276L21.6886 8.36262L19.5914 1.42479C19.4807 1.01081 19.263 0.649705 18.9699 0.393608C18.6767 0.13751 18.3231 -0.000326256 17.9603 5.79902e-07H6.35496C5.42557 5.79902e-07 4.60064 0.718813 4.31405 1.78099L2.31599 8.36582L0.955385 7.41597C0.90633 7.38213 0.848096 7.37293 0.793397 7.39037C0.738698 7.4078 0.69198 7.45046 0.663443 7.50903L0.0286715 8.83434C-0.0302525 8.95628 0.0045663 9.11031 0.106344 9.18091L1.72407 10.3105L1.33571 11.5941C1.30357 11.6968 1.2875 11.8059 1.2875 11.915V23.0886C1.2875 23.5925 1.60355 24 1.99191 24H3.80248C4.13192 24 4.41851 23.7016 4.48814 23.2844L4.69438 22.0746H19.3075L19.5138 23.2844C19.5861 23.7016 19.87 24 20.1994 24H22.01C22.3984 24 22.7144 23.5925 22.7144 23.0886V11.915C22.7144 11.8059 22.6983 11.6968 22.6662 11.5941L22.2778 10.3105L23.8929 9.18091C23.9415 9.14727 23.9772 9.09211 23.9922 9.0273C24.0072 8.96249 24.0004 8.8932 23.9732 8.83434V8.83434ZM20.786 12.1588V19.7641H3.21592V12.1588L3.63375 10.779H20.3682L20.786 12.1588ZM6.1273 2.56719L6.14069 2.52547L6.15141 2.48375C6.18087 2.37786 6.26122 2.30726 6.35496 2.30726H17.8076L19.8271 8.98195H4.18013L6.1273 2.56719ZM4.28727 14.2126C4.28727 14.553 4.40014 14.8795 4.60106 15.1202C4.80197 15.361 5.07447 15.4962 5.35861 15.4962C5.64275 15.4962 5.91525 15.361 6.11617 15.1202C6.31708 14.8795 6.42996 14.553 6.42996 14.2126C6.42996 13.8722 6.31708 13.5457 6.11617 13.305C5.91525 13.0642 5.64275 12.929 5.35861 12.929C5.07447 12.929 4.80197 13.0642 4.60106 13.305C4.40014 13.5457 4.28727 13.8722 4.28727 14.2126Z" fill="black"/>
</svg>
