<svg width="24" height="24" viewBox="0 0 24 24" fill="none" xmlns="http://www.w3.org/2000/svg">
<path d="M3.51077 20.4777C5.78585 22.7496 8.79928 24 12 24C15.2007 24 18.2154 22.7496 20.4892 20.4777C25.1703 15.8034 25.1703 8.19781 20.4892 3.52225C18.2154 1.25161 15.1995 0 12 0C8.80048 0 5.78465 1.25161 3.51077 3.52225C-1.17026 8.19661 -1.17026 15.8034 3.51077 20.4777ZM18.7916 18.7826C17.5335 20.0424 15.948 20.9264 14.2139 21.3349C14.203 19.4144 14.9174 17.5633 16.244 16.2386C17.6403 14.8443 19.524 14.0471 21.3789 14.0195C20.9964 15.8238 20.0976 17.4785 18.7916 18.7826ZM21.583 11.6314C19.0329 11.6062 16.4397 12.654 14.5464 14.5434C12.7071 16.38 11.7527 18.9552 11.8295 21.5939C9.3392 21.5559 6.96248 20.547 5.20717 18.7826C3.44969 17.0267 2.44557 14.6567 2.40744 12.1744C2.49989 12.1768 2.59233 12.1912 2.68478 12.1912C5.22398 12.1912 7.67915 11.2273 9.45239 9.45782C11.3493 7.56361 12.4022 4.97527 12.3698 2.4169C14.7888 2.50365 17.0844 3.50518 18.7916 5.21864C20.501 6.92658 21.4985 9.21812 21.583 11.6314ZM5.20837 5.21864C6.51316 3.90964 8.16998 3.00641 9.97824 2.61831C9.95663 4.48254 9.15585 6.36356 7.75599 7.76263C6.43056 9.08497 4.58408 9.79589 2.66797 9.7899C3.07027 8.059 3.95036 6.47534 5.20837 5.21864Z" fill="black"/>
</svg>
