<svg width="26" height="26" viewBox="0 0 26 26" fill="none" xmlns="http://www.w3.org/2000/svg">
<path d="M13 2.80533C13.7166 1.99294 14.6636 1.41801 15.7149 1.15706C16.7663 0.896105 17.8722 0.961498 18.8855 1.34454C19.8988 1.72757 20.7715 2.41009 21.3873 3.30128C22.0032 4.19247 22.333 5.25006 22.333 6.33333C22.333 7.41661 22.0032 8.4742 21.3873 9.36539C20.7715 10.2566 19.8988 10.9391 18.8855 11.3221C17.8722 11.7052 16.7663 11.7706 15.7149 11.5096C14.6636 11.2487 13.7166 10.6737 13 9.86133V2.80533ZM17 25H1V23.6667C1 21.5449 1.84286 19.5101 3.34315 18.0098C4.84344 16.5095 6.87827 15.6667 9 15.6667C11.1217 15.6667 13.1566 16.5095 14.6569 18.0098C16.1571 19.5101 17 21.5449 17 23.6667V25ZM17 25H25V23.6667C25.0002 22.2623 24.6307 20.8826 23.9286 19.6663C23.2266 18.45 22.2167 17.4399 21.0005 16.7376C19.7843 16.0353 18.4047 15.6656 17.0003 15.6655C15.5959 15.6655 14.2162 16.0351 13 16.7373L17 25ZM14.3333 6.33333C14.3333 7.74782 13.7714 9.10438 12.7712 10.1046C11.771 11.1048 10.4145 11.6667 9 11.6667C7.58551 11.6667 6.22896 11.1048 5.22876 10.1046C4.22857 9.10438 3.66667 7.74782 3.66667 6.33333C3.66667 4.91885 4.22857 3.56229 5.22876 2.5621C6.22896 1.5619 7.58551 1 9 1C10.4145 1 11.771 1.5619 12.7712 2.5621C13.7714 3.56229 14.3333 4.91885 14.3333 6.33333V6.33333Z" stroke="black" stroke-width="2" stroke-linecap="round" stroke-linejoin="round"/>
</svg>
